<?xml version="1.0" encoding="UTF-8" standalone="no"?>
<svg
   xmlns:dc="http://purl.org/dc/elements/1.1/"
   xmlns:cc="http://creativecommons.org/ns#"
   xmlns:rdf="http://www.w3.org/1999/02/22-rdf-syntax-ns#"
   xmlns:svg="http://www.w3.org/2000/svg"
   xmlns="http://www.w3.org/2000/svg"
   xmlns:sodipodi="http://sodipodi.sourceforge.net/DTD/sodipodi-0.dtd"
   xmlns:inkscape="http://www.inkscape.org/namespaces/inkscape"
   viewBox="0 0 488 512"
   version="1.1"
   id="svg4"
   sodipodi:docname="google-icon.svg"
   inkscape:version="1.0.1 (3bc2e813f5, 2020-09-07)">
  <metadata
     id="metadata10">
    <rdf:RDF>
      <cc:Work
         rdf:about="">
        <dc:format>image/svg+xml</dc:format>
        <dc:type
           rdf:resource="http://purl.org/dc/dcmitype/StillImage" />
      </cc:Work>
    </rdf:RDF>
  </metadata>
  <defs
     id="defs8" />
  <sodipodi:namedview
     pagecolor="#ffffff"
     bordercolor="#666666"
     borderopacity="1"
     objecttolerance="10"
     gridtolerance="10"
     guidetolerance="10"
     inkscape:pageopacity="0"
     inkscape:pageshadow="2"
     inkscape:window-width="2400"
     inkscape:window-height="1271"
     id="namedview6"
     showgrid="false"
     inkscape:zoom="256"
     inkscape:cx="437.05638"
     inkscape:cy="414.64666"
     inkscape:window-x="-9"
     inkscape:window-y="-9"
     inkscape:window-maximized="1"
     inkscape:current-layer="svg4" />
  <!--! Font Awesome Pro 6.4.0 by @fontawesome - https://fontawesome.com License - https://fontawesome.com/license (Commercial License) Copyright 2023 Fonticons, Inc. -->
  <path
     d="M488 261.8C488 403.3 391.1 504 248 504 110.8 504 0 393.2 0 256S110.8 8 248 8c66.8 0 123 24.5 166.3 64.9l-67.5 64.9C258.5 52.6 94.3 116.6 94.3 256c0 86.5 69.1 156.6 153.7 156.6 98.2 0 135-70.4 140.8-106.9H248v-85.3h236.1c2.3 12.7 3.9 24.9 3.9 41.4z"
     id="path2" />
  <path
     style="fill:#ffffff;stroke:#000000;stroke-width:2.69285;stroke-linejoin:round"
     d="M 235.42234,503.32074 C 181.46052,500.73933 128.62907,479.78581 87.426126,444.62382 80.286496,438.53097 66.8244,425.13189 60.580578,417.90394 8.3620444,357.45495 -11.419712,275.9179 7.2330461,198.01446 24.188879,127.19825 72.056448,67.001321 137.34041,34.395043 184.17039,11.005671 236.54527,3.2389754 290.01511,11.754845 c 4.24097,0.675437 12.26765,2.349742 17.83708,3.720679 18.55078,4.56635 31.97459,9.525845 49.40148,18.251625 13.22217,6.620446 24.15679,13.32915 35.46988,21.761794 8.12017,6.052684 20.66506,16.574835 20.66506,17.333033 0,0.362021 -51.36766,50.016794 -62.45388,60.371324 l -4.15991,3.88534 -4.1678,-3.65194 c -16.44027,-14.40538 -36.09769,-24.72685 -57.23433,-30.0519 -12.70751,-3.20145 -17.37092,-3.700269 -34.8371,-3.726319 -17.37293,-0.02591 -22.513,0.497899 -36.08674,3.677539 -45.44299,10.64496 -84.30562,41.22076 -104.27835,82.04265 -5.52711,11.29677 -8.38064,18.95212 -11.122887,29.84014 -10.336453,41.04053 -4.48966,84.64913 16.104087,120.11325 24.66803,42.48033 66.67093,70.53872 114.39198,76.41504 8.86044,1.09107 27.09982,1.24697 36.50246,0.31202 45.73689,-4.54786 81.35337,-25.07763 104.3112,-60.12623 9.29615,-14.19198 14.78962,-27.42915 18.62413,-44.87711 l 0.37281,-1.69638 H 318.7112 248.06812 v -42.25542 -42.25543 h 117.78012 c 111.63572,0 117.79718,0.0563 118.10715,1.07952 0.17987,0.59374 0.92166,4.96579 1.64842,9.71566 1.66962,10.91201 2.32667,38.77732 1.23976,52.57713 -7.49012,95.09674 -59.4261,168.92871 -141.92725,201.76319 -25.88121,10.30041 -53.68643,15.96682 -85.26866,17.37685 -7.55621,0.33735 -13.87737,0.57481 -14.047,0.52768 -0.16964,-0.0471 -4.74988,-0.29815 -10.17832,-0.55784 z"
     id="path24" />
  <path
     style="fill:#ffffff;stroke:#000000;stroke-width:0.0210379;stroke-linejoin:round"
     d="m 434.9184,418.31743 c 2.01315,-2.51643 4.0032,-5.12311 5.90796,-7.73855 l 0.16847,-0.23132 1.52366,-10e-4 1.52367,-0.001 v 0.18505 0.18504 l -0.18462,0.25713 c -1.1365,1.5829 -2.44915,3.35911 -3.55827,4.81486 -0.79062,1.03771 -1.37866,1.79817 -2.16334,2.79765 l -0.11064,0.14092 -1.71682,5e-5 -1.71681,4e-5 z"
     id="path26" />
</svg>
